<?xml version="1.0" encoding="utf-8"?>
<!-- Generator: Adobe Illustrator 28.0.0, SVG Export Plug-In . SVG Version: 6.00 Build 0)  -->
<svg version="1.0" id="katman_1" xmlns="http://www.w3.org/2000/svg" xmlns:xlink="http://www.w3.org/1999/xlink" x="0px" y="0px"
	 viewBox="0 0 725.66 574.94" style="enable-background:new 0 0 725.66 574.94;" xml:space="preserve">
<style type="text/css">
	.st0{fill:#FCFEFD;}
	.st1{fill:#181F49;}
	.st2{fill:#FF6200;}
	.st3{fill:#8E9FC5;}
	.st4{fill:#FE7900;}
	.st5{fill:#FE8400;}
	.st6{fill:#FEA100;}
	.st7{fill:#B53D08;}
	.st8{fill:#FF5200;}
</style>
<path class="st0" d="M498.49,108.85c-0.13,0.68-0.28,1.18-0.46,1.5c-0.43,0.78-0.76,0.74-0.98-0.13
	c-2.16-8.51-7.5-13.84-16.01-15.99c-0.28-0.07-0.38-0.42-0.18-0.63c0.47-0.49,1.08-0.89,1.83-1.18c7.31-2.68,12.05-7.36,14.21-14.03
	c0.58-1.79,1.06-1.77,1.43,0.08c1.61,8.07,7.75,12,15.06,15.1c0.95,0.4,0.93,0.75-0.05,1.04
	C505.7,96.86,500.52,100.83,498.49,108.85z"/>
<path class="st0" d="M569.62,153.63c-0.21,0.18-0.4,0.44-0.55,0.79c-0.12,0.27-0.42,0.41-0.7,0.32c-0.11-0.03-0.21-0.1-0.32-0.2
	c-0.1-0.1-0.17-0.25-0.22-0.46c-2.41-10.89-8.7-17.51-18.89-19.87c-2.63-0.61-2.62-1.18,0.03-1.69c4.51-0.87,8.75-3.38,12.72-7.55
	c3.28-3.48,5.19-8.25,6.24-12.63c0.39-1.63,0.81-1.64,1.28-0.03c3.41,11.77,8.39,16.76,19.79,20.98c0.95,0.35,0.93,0.64-0.05,0.87
	C578.74,136.59,571.61,143.18,569.62,153.63z"/>
<path class="st1" d="M196.73,426.74c1.59-4.41,3.2-8.76,4.83-13.07c2.85-7.5,7.48-9.58,14.85-10.21c1.2,0.02,2.84-0.07,4.91-0.28
	c0.67-0.07,1.26-0.32,1.79-0.76c3.33-2.82,6.6-5.71,9.83-8.67c4.71-4.31,11.73-8.8,21.04-13.47c0.32-0.17,0.46-0.43,0.41-0.79
	c-0.88-6.25-1.5-12.53-1.85-18.84c-0.18-3.11-3.79-3.36-6.45-3.38c-13.11-0.12-26.3-0.03-39.56,0.28c-1.93-0.33-3.93-0.54-6.02-0.61
	c-8.09-0.29-13.09-7-13.26-14.78c-0.11-5.04-0.17-16.67-0.17-34.9l-0.06-21.11c0.04-8.83,0.06-17.66,0.07-26.5
	c0.01-7.65,3.21-13.17,9.58-16.55c2.35-0.83,4.66-1.25,6.92-1.25c19.33,0.03,38.67-0.04,58-0.21c2.11-0.02,4.07-0.05,5.88-0.09
	c9.19,0.11,18.29,0.16,27.28,0.16c6.38-0.01,11.21,0.51,15.5,4.54c5.44,5.1,4.79,12.98,4.46,19.89l0.4,78.19
	c0,0.31,0.25,0.56,0.55,0.56l13.41,0.07c0.32,0,0.57-0.29,0.53-0.61c-1.35-10.06-2.07-18.21-2.18-24.44
	c-0.24-13.22,1.56-26.97,5.4-41.24c6.81-25.27,17.56-51.64,36.35-68.17c11.12-9.78,24.36-14.69,38.73-17.38
	c0.34-0.06,0.47-0.49,0.22-0.73c-21.09-20.48-13.87-53.76,15.52-61.04c9.03-2.23,18.14-1.64,27.31,1.78
	c11.92,4.46,21.74,15.63,24.06,28.79c0.19,1.12,0.15,2.14-0.14,3.05c-0.11,0.35-0.34,0.59-0.69,0.7c-1.33,0.45-2.69,0.67-4.09,0.67
	c-4.93-0.02-9.8,0.06-14.62,0.25c-0.6,0.02-1.1,0.47-1.18,1.07c-0.37,2.64-0.56,5.14-0.56,7.5c0.01,6.42,8.3,2.98,11.09,1.65
	c0.5-0.24,1.1-0.03,1.34,0.47l4.32,9.26c0.33,0.69,0.01,1.51-0.7,1.8l-3.82,1.57c-0.31,0.13-0.52,0.35-0.63,0.67
	c-1.51,4.53-1.42,11.03-1.69,15.84c-0.07,1.23-0.72,2.33-1.97,3.31c-7.43,5.84-15.8,1.14-23.77,4.22c-2.25,0.87-4.48,1.98-6.69,3.33
	c-0.76,0.46-1.09,1.13-0.99,2.01c0.63,5.51,0.3,11.22-1,17.15c-3.23,14.75-6.15,29.6-8.76,44.55c-0.07,0.43,0.11,0.7,0.54,0.79
	c13.11,2.87,26.39,5.43,39.83,7.68c5.07,0.86,5.34-1.6,9.12-2.72c2.21-0.65,5.34-1.01,9.39-1.06c6.1-0.07,9.58-0.19,13.83,3.23
	c0.29,0.23,0.58,0.24,0.87,0.01c6.08-4.78,11.6-10.77,19.14-15.44c8.58-5.32,22.72-9.1,31.55-3.43c8.32,5.33,8,14.88,7.59,24.84
	c-0.17,4.35-0.63,7.48-1.37,9.41c-3.3,8.61-12.14,11.63-20.73,11.1c-1.65-0.1-3.3-0.2-4.95-0.3c-0.38-0.02-0.47,0.13-0.26,0.45
	c16.51,25.93,33.99,51.17,48.31,78.41c2.39,4.55,4.17,9.32,5.33,14.33c0.08,0.33,0.29,0.49,0.63,0.46
	c10.63-0.87,19.68-1.02,30.03,1.99c16.81,4.89,30.11,14.57,39.88,29.02c4.45,6.59,8.14,15.17,5.75,22.16
	c-0.9,2.62-5.45,2.25-7.64,2.26c-0.4,0-0.49,0.16-0.26,0.49c12.41,17.53,15.24,36.26,8.51,56.21c-4.71,13.94-13.77,24.87-27.18,32.8
	c-0.77,0.46-1.92,0.7-2.87,1.19c-0.63,0.33-0.59,0.5,0.13,0.51c18.89,0.27,30.88,0.41,35.95,0.41c5.02-0.01,8.32,1.88,9.91,5.67
	c2.12,5.05-0.03,10.08-4.89,12.47c-1.16,0.57-3.16,0.86-6.01,0.86c-186.6,0.11-373.2,0.16-559.8,0.15c-3.69,0-6.41-0.47-8.14-1.4
	c-8.01-4.3-5.03-17.46,4.44-17.59c45.63-0.63,91.3-0.3,136.94-0.45c0.63,0,0.66-0.14,0.09-0.41c-1.77-0.85-3.64-1.45-5.16-2.56
	c-17.21-12.6-27.75-32.06-27.64-53.57c0-0.35-0.17-0.53-0.52-0.55c-6.25-0.36-12.49-0.6-18.72-0.72c-4.69-0.09-6.53-2.6-5.5-7.53
	c0.68-3.25,1.95-7.75,3.81-13.5C185.8,459.97,191.25,443.33,196.73,426.74z M411.37,172.33c1.57,2.33,3.86,3.89,6.85,4.7
	c0.33,0.09,0.64,0.06,0.95-0.07c2.06-0.91,3.65-2.16,4.76-3.73c2.84-4.05,5.74-8.06,8.7-12.01c4.7-6.3,13.72-10.97,21.89-9.69
	c0.53,0.08,0.63-0.09,0.28-0.5c-1.14-1.34-2.38-2.28-3.71-2.83c-12.69-10.34-35.09-8.21-41.56,8.7
	C407.36,162.57,407.97,167.72,411.37,172.33z M381.78,271.48c-0.23,2.19-0.24,4.49-0.04,6.92c0.65,8.02,1.45,15.88,2.42,23.59
	c0.14,1.13,0.32,1.14,0.54,0.02c4.72-23.53,9.98-45.11,18.13-69.84c2.63-7.96,6.72-14.64,12.28-20.03
	c-2.86-2.61-6.32-4.07-10.39-4.37c-2.88-0.22-8.54,0.69-10.89,1.66c-25.53,10.54-36.07,35.84-42.83,60.64
	c-0.23,0.83-0.11,0.88,0.34,0.15c8.44-13.71,17.14-27.56,27.65-40c0.61-0.73,0.9-0.62,0.87,0.33c-0.36,11.57,0.44,22.94,0.86,34.49
	C380.8,267.25,381.32,269.3,381.78,271.48z M222.09,267.94c14.15-0.45,28.47-1.66,42.95-3.63l0,0c-20.24-2.26-40.68-2.53-61.29-2.4
	c-0.23,0-0.42,0.19-0.42,0.42c-0.02,20.05-0.1,40.16-0.23,60.33c-0.03,4.01,0.13,7.87,0.47,11.57c0.06,0.67,0.63,1.18,1.3,1.18
	h14.95c0.81-0.01,1.22-0.42,1.22-1.23l-0.05-65.11C220.99,268.34,221.36,267.96,222.09,267.94z M512.86,296.08
	c3.13,1.15,6.47,2.3,10,3.45c2.56,0.84,13.83,3.92,14.56,0.15c0.86-4.4,1.04-9.21,0.55-14.44c-0.12-4.37-1.91-6.32-5.36-5.84
	c-9.75,1.36-16.66,6.78-20.71,16.27C511.79,295.94,512.11,296.07,512.86,296.08z M257.98,294.5c0.31,0,0.56-0.26,0.55-0.57l-0.39-13
	c-0.01-0.29-0.26-0.53-0.55-0.53l-16.76-0.02c-0.31,0-0.56,0.25-0.55,0.56l0.2,12.89c0.01,0.3,0.25,0.54,0.55,0.54L257.98,294.5z
	 M282.76,281.1c0-0.4-0.32-0.71-0.71-0.71l-16.7-0.03c-0.39-0.01-0.71,0.31-0.71,0.71l-0.02,12.62c0,0.4,0.32,0.71,0.71,0.71
	l16.7,0.03c0.39,0.01,0.71-0.31,0.71-0.71L282.76,281.1z M473.8,302.59h9.6c0.43,0,0.78-0.35,0.78-0.78v-0.16
	c0-3.05-2.48-5.52-5.55-5.52h-0.06c-3.07,0-5.55,2.47-5.55,5.52v0.16C473.02,302.24,473.37,302.59,473.8,302.59z M258.33,299.12
	c-0.01-0.38-0.32-0.69-0.69-0.69l-16.58,0.06c-0.38,0-0.69,0.31-0.69,0.69l0.05,13.86c0.01,0.38,0.32,0.69,0.69,0.69l16.58-0.06
	c0.38,0,0.69-0.31,0.69-0.69L258.33,299.12z M282.63,299.07c0-0.34-0.28-0.62-0.62-0.62h-16.8c-0.34,0-0.62,0.28-0.62,0.62v13.98
	c0,0.34,0.28,0.62,0.62,0.62h16.8c0.34,0,0.62-0.28,0.62-0.62V299.07z M398.71,312.03c19.16,8.33,38.4,15.97,57.04,25.48
	c10.81,5.52,19.86,10.6,21.39,22.55c0.66,5.19-0.9,10.99-2.66,16.08c-8.24,23.82-17.42,47.28-27.54,70.37
	c-0.51,1.15-0.4,2.14,0.32,2.96c4.5,5.13,9.82,9.63,15.95,13.5c4.85,3.05,7.13,5.46,8.54,10.68c0.09,0.33,0.3,0.55,0.62,0.67
	c12.24,4.54,26.17-0.29,35.46-8.68c13.74-12.39,21.15-31.37,22.41-49.54c0.87-12.57-1.35-26.73-4.59-39.44
	c-3.37-13.21-7.2-26.28-11.5-39.21c-3.12-9.36-10.05-23.34-20.41-26.42c-0.37-0.11-0.77,0.06-0.94,0.41
	c-1.57,3.09-4.13,4.96-7.69,5.63c-5.12,0.96-16.01,0.62-18.67-5.19c-0.22-0.47-0.69-0.77-1.21-0.77l-66.37,0.18
	C397.62,311.29,397.57,311.54,398.71,312.03z M286.05,369.75l99.29,0.5c1.23,0.01,1.31-0.3,0.25-0.92l-8.5-4.98
	c-0.17-0.09-0.26-0.29-0.21-0.48l0.08-0.32c0.05-0.19,0.25-0.28,0.43-0.2c7.19,3.34,16.34,8.46,24.11,7.72
	c0.12-0.01,0.18-0.15,0.1-0.24c-3.13-3.47-12.03-12.29-16.76-12.22c-9.68,0.15-19.36,0.21-29.05,0.16
	c-21.39,0.01-42.79-0.06-64.2-0.21c-9.45-0.06-15.23,5.65-20.43,12.7c-0.2,0.27,0.03,0.65,0.36,0.6L286.05,369.75z M416.63,399.44
	c-10.67,10.15-19.7,25.79-18.27,40.72c0.99,10.33,5.29,19.44,12.92,27.32c2.04,2.11,4.27,4.29,6.69,6.54
	c0.3,0.28,0.79,0.1,0.83-0.31c1.7-17.7,5.29-35.4,8.2-52.94c2.55-15.45,5.77-31.74,8.46-47.67c0.05-0.29-0.08-0.44-0.37-0.44
	l-12.05-0.03c-0.92-0.01-1.01,0.27-0.27,0.82c4.89,3.65,6.41,8.52,4.56,14.61C426.18,391.84,419.6,396.62,416.63,399.44z
	 M199.1,470.51l-4.22,10.56c-0.13,0.33,0.12,0.68,0.47,0.68l12.14-0.24c9.83,0.65,17.37,0.55,22.6-0.31
	c3.93-0.64,6.94-1.37,9.03-2.19c3.44-1.34,6.73-2.8,10.42-3.27c4.61-0.59,8.62-0.86,12.05-0.82c18.75,0.22,37.5,0.26,56.25,0.11
	c7.44-0.06,12.63-0.85,17.78-6.56c2.52-1.19,4.89-3.08,7.12-5.67c7.23-8.41,17.42-26.37,15.31-38.07c-0.25-1.41-0.04-1.48,0.64-0.22
	c7.25,13.46,8.74,28.97,1.81,42.87c-5.35,10.72-13.36,18.42-22.29,26.17l-14.26,11c-0.49,0.37-0.43,0.54,0.18,0.51
	c5.39-0.33,10.87-0.5,16.46-0.52c43-0.14,86-0.17,129-0.09c11.25,0.02,17.9-0.14,19.95-0.49c15.34-2.62,23.58-12.75,29.84-26.4
	c0.65-1.42,0.31-1.72-1.02-0.91c-0.2,0.12-0.66,0.58-1.38,1.38c-8.11,9-20.43,16.4-32.89,16.39c-41.83-0.03-83.67-0.01-125.5,0.06
	c-2.07,0.01-4.15-0.07-6.24-0.23c-0.35-0.03-0.43-0.19-0.25-0.48c0.22-0.35,0.56-0.61,1.02-0.78c16.63-13.4,26.1-32.89,22.16-54.49
	c-2.66-14.61-10.04-26.76-22.13-36.44c-15.71-11.59-33.19-17.02-52.42-16.3c-7.57,0.28-15.22,0.88-22.39,2.73
	C237.91,398.91,209.06,430.03,199.1,470.51z M560.53,442.84c-8.27,11.07-13.87,24.16-20.08,36.46c-3.93,7.79-7.58,14.27-11.7,17.72
	c-1.09,0.91-0.92,1.33,0.5,1.25c9.17-0.54,18.45-2.24,25.91-7.92c4.05-3.08,7.59-8.15,10.91-12.46c8.11-10.53,18.71-17.13,31.8-19.8
	c8.32-1.69,14.41-1.73,21.6-2.97c0.32-0.06,0.56-0.32,0.59-0.64c0.42-4.43-0.54-8.5-2.88-12.21c-0.21-0.34-0.15-0.41,0.2-0.22
	c1.04,0.57,1.83,1.32,2.36,2.25c1.79,3.11,2.93,6.07,3.4,8.86c0.2,1.13,0.87,1.65,2.01,1.56l14.03-1.16
	c0.58-0.05,0.77-0.34,0.56-0.89c-1.31-3.44-3.06-6.44-5.26-8.99c-3.9-4.71-8.12-8.57-12.66-11.6c-11.55-8.41-26.86-9.83-40.21-5.56
	C573,429.28,566.08,435.78,560.53,442.84z M624.91,503.14c0.48-15.39-11.87-28.26-27.59-28.76c-15.73-0.49-28.86,11.59-29.34,26.97
	c-0.48,15.39,11.87,28.26,27.59,28.76C611.29,530.61,624.42,518.53,624.91,503.14z M217.31,502.8c-0.44,4.77,0.2,9.26,1.92,13.45
	c7.17,17.48,22.45,29.62,41.13,31.57c18.43,1.93,38.49-8.07,47.15-24.83c0.11-0.21,0.11-0.44-0.01-0.67
	c-0.14-0.28-0.33-0.32-0.57-0.11c-2.27,1.97-5.61,2.14-7.98,4.06c-8.03,6.53-14.98,11.23-24.72,13.46
	c-24.6,5.61-46.75-11.42-51.97-35.06c-0.15-0.68-0.47-1.02-0.96-1.01l-1.54-4.3c-0.08-0.23-0.09-0.47-0.04-0.71
	c0.07-0.31,0.01-0.43-0.16-0.36c-0.13,0.05-0.27-0.03-0.3-0.16c-0.29-1.27-0.66-2.51-1.13-3.72c-0.31-0.81-0.48-0.78-0.51,0.08
	L217.31,502.8z M501.77,517.29c-6.77,1.95-12.08,2.92-15.93,2.91c-48.02-0.02-96-0.02-143.95,0.01l-14.93-0.05
	c-0.34,0-0.65,0.21-0.78,0.53c-5.74,14.65-15.34,26.05-28.8,34.2c-0.68,0.41-0.62,0.62,0.18,0.62l268.02,0.05
	c1.66,0,1.7-0.25,0.12-0.76c-13.56-4.33-28.99-26.58-31.01-40.29c-0.08-0.5-0.49-0.87-0.99-0.9c-7.72-0.37-15.29-0.13-22.88-0.31
	C507.07,513.21,504.91,516.16,501.77,517.29z"/>
<path class="st0" d="M191.3,136.42c0.81-0.15,1.36-0.02,1.65,0.37c2.93,4.06,5.45,7.41,6.09,10.35c0.1,0.46-0.22,0.91-0.69,0.95
	l-4.98,0.46l-10.95-0.59c-0.84-0.05-1.46-0.8-1.35-1.64C181.82,140.69,186.21,137.72,191.3,136.42z"/>
<path class="st0" d="M358.46,142.21c5.45,2.06,7.9,5.71,7.37,10.95c-0.5,4.9-3.94,8.93-8.99,8.99c-10.17,0.12-20.82,0.49-30.94-0.54
	c-5.25-0.53-10.27-2.71-15.49-4.17c-0.25-0.07-0.26-0.42-0.02-0.51l2.53-0.97C328.86,150,339.75,138.98,358.46,142.21z"/>
<path class="st0" d="M451.09,148.2c-8.19-4.19-16.39-4.32-24.59-0.39c-8.31,3.99-13.35,10.32-15.11,18.98
	c-0.16,0.81-0.21,1.73-0.16,2.75c0.05,0.89,0.1,1.82,0.14,2.79c-3.4-4.61-4.01-9.76-1.84-15.43
	C416,139.99,438.4,137.86,451.09,148.2z"/>
<path class="st2" d="M451.09,148.2c1.33,0.55,2.57,1.49,3.71,2.83c0.35,0.41,0.25,0.58-0.28,0.5c-8.17-1.28-17.19,3.39-21.89,9.69
	c-2.96,3.95-5.86,7.96-8.7,12.01c-1.11,1.57-2.7,2.82-4.76,3.73c-0.31,0.13-0.62,0.16-0.95,0.07c-2.99-0.81-5.28-2.37-6.85-4.7
	c-0.04-0.97-0.09-1.9-0.14-2.79c-0.05-1.02,0-1.94,0.16-2.75c1.76-8.66,6.8-14.99,15.11-18.98
	C434.7,143.88,442.9,144.01,451.09,148.2z"/>
<path class="st0" d="M265.24,226.27c7.07,2.56,7.43,10.5,2.23,15.28c-1.81,0.04-3.77,0.07-5.88,0.09c-19.33,0.17-38.67,0.24-58,0.21
	c-2.26,0-4.57,0.42-6.92,1.25c5.98-15.46,17.18-30.45,28.19-42.73c10.49-11.85,20.99-21.5,31.49-28.94
	c12.07-8.54,26.54-10.65,41.04-8.79c1.47,0.19,1.61,0.71,0.4,1.58c-10.46,7.48-22.65,15.25-31.53,22.44
	c-14.06,11.39-26.08,24.22-37.29,38.43c-0.4,0.51-0.28,0.76,0.37,0.77L265.24,226.27z"/>
<path class="st0" d="M312.3,189.68c0,4.81-3.9,8.71-8.71,8.71s-8.71-3.9-8.71-8.71s3.9-8.71,8.71-8.71S312.3,184.87,312.3,189.68z"
	/>
<path class="st0" d="M132.82,199.62c0.81-2.18,1.51-4.36,2.12-6.55c0.08-0.29,0.45-0.39,0.67-0.18l0.32,0.3
	c0.13,0.11,0.22,0.26,0.27,0.43c3.18,10.56,8.48,19.15,20,21c2.48,0.39,2.5,0.87,0.05,1.42c-11.3,2.57-17.35,10.47-20.38,21.1
	c-0.13,0.48-0.35,0.77-0.64,0.88c-0.32,0.11-0.67-0.09-0.72-0.43c-1.99-12.78-9.32-18.08-21.18-21.4c-1.45-0.41-1.44-0.8,0.01-1.18
	C121.42,212.89,129.76,207.87,132.82,199.62z"/>
<path class="st0" d="M415.11,212.14c-2.64-1.51-5.07-1.93-7.28-1.26c-12.21,3.72-16.85,12.05-20.03,24.36
	c-2.7,10.45-4.39,21.09-6.19,31.72c-0.05,0.31-0.02,0.64,0.09,0.95c0.53,1.41,0.55,2.6,0.08,3.57c-0.46-2.18-0.98-4.23-1.06-6.44
	c-0.42-11.55-1.22-22.92-0.86-34.49c0.03-0.95-0.26-1.06-0.87-0.33c-10.51,12.44-19.21,26.29-27.65,40
	c-0.45,0.73-0.57,0.68-0.34-0.15c6.76-24.8,17.3-50.1,42.83-60.64c2.35-0.97,8.01-1.88,10.89-1.66
	C408.79,208.07,412.25,209.53,415.11,212.14z"/>
<path class="st3" d="M415.11,212.14c-5.56,5.39-9.65,12.07-12.28,20.03c-8.15,24.73-13.41,46.31-18.13,69.84
	c-0.22,1.12-0.4,1.11-0.54-0.02c-0.97-7.71-1.77-15.57-2.42-23.59c-0.2-2.43-0.19-4.73,0.04-6.92c0.47-0.97,0.45-2.16-0.08-3.57
	c-0.11-0.31-0.14-0.64-0.09-0.95c1.8-10.63,3.49-21.27,6.19-31.72c3.18-12.31,7.82-20.64,20.03-24.36
	C410.04,210.21,412.47,210.63,415.11,212.14z"/>
<path class="st0" d="M222.09,267.94c-0.73,0.02-1.1,0.4-1.1,1.13l0.05,65.11c0,0.81-0.41,1.22-1.22,1.23h-14.95
	c-0.67,0-1.24-0.51-1.3-1.18c-0.34-3.7-0.5-7.56-0.47-11.57c0.13-20.17,0.21-40.28,0.23-60.33c0-0.23,0.19-0.42,0.42-0.42
	c20.61-0.13,41.05,0.14,61.29,2.4l0,0C250.56,266.28,236.24,267.49,222.09,267.94z"/>
<path class="st0" d="M537.97,285.24c-2.31,0.39-4.54,0.92-6.7,1.61c-3.71,1.18-7.36,2.53-10.94,4.05c-1.37,0.59-3.86,2.31-7.47,5.18
	c-0.75-0.01-1.07-0.14-0.96-0.41c4.05-9.49,10.96-14.91,20.71-16.27C536.06,278.92,537.85,280.87,537.97,285.24z"/>
<path class="st0" d="M257.98,294.5l-16.95-0.13c-0.3,0-0.54-0.24-0.55-0.54l-0.2-12.89c-0.01-0.31,0.24-0.56,0.55-0.56l16.76,0.02
	c0.29,0,0.54,0.24,0.55,0.53l0.39,13C258.54,294.24,258.29,294.5,257.98,294.5z"/>
<path class="st0" d="M282.74,293.72c0,0.39-0.32,0.71-0.71,0.71l-16.7-0.03c-0.39-0.01-0.71-0.32-0.71-0.71l0.02-12.62
	c0-0.39,0.32-0.71,0.71-0.71l16.7,0.03c0.39,0.01,0.71,0.32,0.71,0.71L282.74,293.72z"/>
<path class="st2" d="M537.97,285.24c0.49,5.23,0.31,10.04-0.55,14.44c-0.73,3.77-12,0.69-14.56-0.15c-3.53-1.15-6.87-2.3-10-3.45
	c3.61-2.87,6.1-4.59,7.47-5.18c3.58-1.52,7.23-2.87,10.94-4.05C533.43,286.16,535.66,285.63,537.97,285.24z"/>
<path class="st0" d="M473.8,302.59c-0.43,0-0.78-0.35-0.78-0.78v-0.16c0-3.05,2.48-5.52,5.55-5.52h0.06c3.07,0,5.55,2.47,5.55,5.52
	v0.16c0,0.43-0.35,0.78-0.78,0.78H473.8z"/>
<path class="st0" d="M258.38,312.98c0.01,0.38-0.3,0.69-0.69,0.69l-16.58,0.06c-0.38,0-0.69-0.31-0.69-0.69l-0.05-13.86
	c-0.01-0.38,0.3-0.69,0.69-0.69l16.58-0.06c0.38,0,0.69,0.31,0.69,0.69L258.38,312.98z"/>
<path class="st0" d="M282.63,313.05c0,0.34-0.28,0.62-0.62,0.62h-16.8c-0.34,0-0.62-0.28-0.62-0.62v-13.98
	c0-0.34,0.28-0.62,0.62-0.62h16.8c0.34,0,0.62,0.28,0.62,0.62V313.05z"/>
<path class="st2" d="M643.84,306.66c1.51,0.92,1.99,2.05,1.43,3.4c-0.11,0.27-0.14,0.54-0.1,0.82c0.35,2.33,0.02,4.56-0.98,6.67
	c-0.13,0.27-0.11,0.53,0.08,0.78c0.3,0.4,0.36,0.84,0.17,1.31c-0.08,0.2-0.22,0.27-0.43,0.21l-0.26-0.08
	c-0.13-0.05-0.21,0-0.22,0.14c-0.47,3.85-1.41,7.58-2.82,11.19c-0.03,0.09-0.01,0.18,0.06,0.25c0.08,0.07,0.14,0.14,0.17,0.22
	c0.03,0.08-1.56,4.74-2.24,6.83c-0.39,1.2-1.1,2.3-2.14,3.3c-0.17,0.17-0.28,0.34-0.31,0.51c-0.05,0.21-0.05,0.41-0.01,0.61
	c0.07,0.37,0.29,0.52,0.66,0.46c0.19-0.03,0.38,0,0.57,0.07c0.11,0.04,0.17,0.16,0.14,0.28c-0.03,0.11-0.14,0.18-0.26,0.16
	c-0.45-0.07-0.87-0.04-1.28,0.1c-0.13,0.04-0.13,0.23,0,0.28c0.49,0.17,0.99,0.21,1.52,0.13c0.65-0.09,0.9,0.09,0.77,0.56
	l-78.07,0.16c-0.92,0-1.77-0.44-2.3-1.19l-12.96-18.37c-0.19-0.27-0.06-0.64,0.25-0.74c8.94-2.93,13.13-9.12,17.38-16.97
	c0.29-0.53,0.85-0.86,1.46-0.87L643.84,306.66z"/>
<path class="st0" d="M455.75,337.51c-18.64-9.51-37.88-17.15-57.04-25.48c-1.14-0.49-1.09-0.74,0.15-0.74l66.37-0.18
	c0.52,0,0.99,0.3,1.21,0.77c2.66,5.81,13.55,6.15,18.67,5.19c3.56-0.67,6.12-2.54,7.69-5.63c0.17-0.35,0.57-0.52,0.94-0.41
	c10.36,3.08,17.29,17.06,20.41,26.42c4.3,12.93,8.13,26,11.5,39.21c3.24,12.71,5.46,26.87,4.59,39.44
	c-1.26,18.17-8.67,37.15-22.41,49.54c-9.29,8.39-23.22,13.22-35.46,8.68c-0.32-0.12-0.53-0.34-0.62-0.67
	c-1.41-5.22-3.69-7.63-8.54-10.68c-6.13-3.87-11.45-8.37-15.95-13.5c-0.72-0.82-0.83-1.81-0.32-2.96
	c10.12-23.09,19.3-46.55,27.54-70.37c1.76-5.09,3.32-10.89,2.66-16.08C475.61,348.11,466.56,343.03,455.75,337.51z M483.09,464.65
	c24.5-2.84,35.45-32.23,36.72-52.94c0.31-4.98-0.16-11.14-1.4-18.48c-2.85-16.91-6.7-30.22-12.33-48.98
	c-1.97-6.55-4.81-12.83-8.53-18.86c-0.41-0.66-1.25-0.89-1.94-0.53c-7.44,3.85-15.24,4.76-23.41,2.72
	c-4.84-1.21-8.83-4.46-13.91-4.88c-1.69-0.14-3.33-0.14-4.92,0c-0.89,0.08-0.92,0.28-0.09,0.6c5.36,2.04,10.55,5.37,15.44,8.34
	c13.02,7.93,21.48,17.78,20.29,33.79c-0.92,12.53-5.69,24.2-10.52,36.92c-2.93,7.71-8.43,21.26-16.52,40.65
	c-0.49,1.19-0.93,2.27-1.3,3.26c-0.19,0.52,0,1.09,0.45,1.4c6.74,4.5,12.73,8.91,17.83,15.25
	C480.12,464.37,481.3,464.85,483.09,464.65z"/>
<path class="st4" d="M519.81,411.71c-1.27,20.71-12.22,50.1-36.72,52.94c-1.79,0.2-2.97-0.28-4.14-1.74
	c-5.1-6.34-11.09-10.75-17.83-15.25c-0.45-0.31-0.64-0.88-0.45-1.4c0.37-0.99,0.81-2.07,1.3-3.26
	c8.09-19.39,13.59-32.94,16.52-40.65c4.83-12.72,9.6-24.39,10.52-36.92c1.19-16.01-7.27-25.86-20.29-33.79
	c-4.89-2.97-10.08-6.3-15.44-8.34c-0.83-0.32-0.8-0.52,0.09-0.6c1.59-0.14,3.23-0.14,4.92,0c5.08,0.42,9.07,3.67,13.91,4.88
	c8.17,2.04,15.97,1.13,23.41-2.72c0.69-0.36,1.53-0.13,1.94,0.53c3.72,6.03,6.56,12.31,8.53,18.86
	c5.63,18.76,9.48,32.07,12.33,48.98C519.65,400.57,520.12,406.73,519.81,411.71z"/>
<path class="st1" d="M157.06,339.93c4.93-0.01,8.03,0.08,9.3,0.26c5.05,0.71,8.76,5.71,7.78,10.69c-1.63,8.33-12.35,5.94-18.18,6.44
	l-49.1-0.09c-12.32-0.27-23.49-0.28-33.52-0.04c-5.75,0.14-10.14-5.13-8.65-10.71c1.59-6.02,7.56-6.65,12.9-6.63
	C104.07,339.97,130.56,340,157.06,339.93z"/>
<path class="st0" d="M206.53,357.55c13.26-0.31,26.45-0.4,39.56-0.28c2.66,0.02,6.27,0.27,6.45,3.38
	c0.35,6.31,0.97,12.59,1.85,18.84c0.05,0.36-0.09,0.62-0.41,0.79c-9.31,4.67-16.33,9.16-21.04,13.47c-3.23,2.96-6.5,5.85-9.83,8.67
	c-0.53,0.44-1.12,0.69-1.79,0.76c-2.07,0.21-3.71,0.3-4.91,0.28c1.09-6.11,3.8-11.31,8.13-15.59c5.16-5.09,10.48-9.21,15.95-12.36
	c1.88-1.07,2.25-2.33,1.94-4.36c-0.61-4.02-0.85-7.99-0.72-11.9c0.01-0.38-0.29-0.7-0.67-0.72c-3.1-0.13-6.19-0.54-9.27-0.4
	C223.29,358.52,214.88,358.32,206.53,357.55z"/>
<path class="st0" d="M106.86,357.23l49.1,0.09c9.17,5.27,10.02,11.67,2.54,19.2l-49.39-0.1c-3.93-3.04-6.24-6.63-6.95-10.76
	C101.6,362.42,104.5,359.28,106.86,357.23z"/>
<path class="st0" d="M355.79,358.77c0.13,0.19,0.42,0.28,0.87,0.27c0.41-0.01,0.51,0.16,0.32,0.52c-0.19,0.37-0.57,0.57-1.14,0.61
	c-2.55,0.17-5.11,0.29-7.66,0.37c-7.27,0.23-14.48,1.38-21.71,1.99c-13.67,1.17-27.14,3.58-40.42,7.22l-14.53,2.11
	c-0.33,0.05-0.56-0.33-0.36-0.6c5.2-7.05,10.98-12.76,20.43-12.7C313,358.71,334.4,358.78,355.79,358.77z"/>
<path class="st3" d="M355.79,358.77c9.69,0.05,19.37-0.01,29.05-0.16c4.73-0.07,13.63,8.75,16.76,12.22
	c0.08,0.09,0.02,0.23-0.1,0.24c-7.77,0.74-16.92-4.38-24.11-7.72c-0.18-0.08-0.38,0.01-0.43,0.2l-0.08,0.32
	c-0.05,0.19,0.04,0.39,0.21,0.48l8.5,4.98c1.06,0.62,0.98,0.93-0.25,0.92l-99.29-0.5c13.28-3.64,26.75-6.05,40.42-7.22
	c7.23-0.61,14.44-1.76,21.71-1.99c2.55-0.08,5.11-0.2,7.66-0.37c0.57-0.04,0.95-0.24,1.14-0.61c0.19-0.36,0.09-0.53-0.32-0.52
	C356.21,359.05,355.92,358.96,355.79,358.77z"/>
<path class="st0" d="M398.36,440.16c-1.43-14.93,7.6-30.57,18.27-40.72c2.97-2.82,9.55-7.6,10.7-11.38
	c1.85-6.09,0.33-10.96-4.56-14.61c-0.74-0.55-0.65-0.83,0.27-0.82l12.05,0.03c0.29,0,0.42,0.15,0.37,0.44
	c-2.69,15.93-5.91,32.22-8.46,47.67c-2.91,17.54-6.5,35.24-8.2,52.94c-0.04,0.41-0.53,0.59-0.83,0.31
	c-2.42-2.25-4.65-4.43-6.69-6.54C403.65,459.6,399.35,450.49,398.36,440.16z M417.94,413.43c-5.64,9.41-10.02,19.23-7.63,29.34
	c0.14,0.59,0.39,1.05,0.74,1.39c0.17,0.16,0.44,0.06,0.47-0.17c1-7.95,2.53-15.69,4.59-23.22c0.67-2.47,1.32-4.96,1.94-7.45
	c0-0.01-0.01-0.02-0.02-0.02s-0.01,0-0.01,0c-0.04-0.01-0.06,0-0.06,0.03c0,0.02,0,0.04,0,0.06
	C417.95,413.4,417.95,413.42,417.94,413.43z"/>
<path class="st1" d="M109.11,376.42l49.39,0.1c11.17,0.27,22.37,0.31,33.59,0.13c5.75-0.1,10.38,6.73,7.95,11.97
	c-2.18,4.7-6.86,5.26-12.1,5.27c-20.13,0.03-40.25,0.04-60.38,0.04H51c-9.47,0.06-19.19,0.05-29.16-0.04
	c-9.11-0.08-11.91-12.62-4.1-16.53c1.27-0.64,3.23-0.96,5.86-0.97c8.65-0.01,17.15,0.02,25.52,0.09L109.11,376.42z"/>
<path class="st0" d="M353.15,402.06c-1.64-0.54-3.27-1.08-4.88-1.63c-1.65-0.55-3.31-0.92-4.98-1.11
	c-8.13-0.89-16.28-1.61-24.45-2.14c-23.47-1.52-46.13,5.67-66.42,17.61c-18.62,10.96-33.78,29.39-41.69,49.66
	c-0.4,1.01-1.36,2.4-2.89,4.15c-0.21,0.23-0.49,0.39-0.8,0.44c-1.81,0.29-3.62,0.41-5.45,0.36c-0.47-0.01-1.3,0.36-2.49,1.11
	c9.96-40.48,38.81-71.6,79.24-82.02c7.17-1.85,14.82-2.45,22.39-2.73C319.96,385.04,337.44,390.47,353.15,402.06z"/>
<path class="st2" d="M353.15,402.06c12.09,9.68,19.47,21.83,22.13,36.44c3.94,21.6-5.53,41.09-22.16,54.49l-0.86,0.05
	c-0.31,0.02-0.55,0.15-0.72,0.4c-0.25,0.37-0.68,0.47-1.29,0.3c-0.03-0.01-0.04,0-0.04,0.02c0,0.09,0,0.19-0.01,0.28
	c0,0.11-0.06,0.18-0.17,0.19c-1.39,0.17-2.75,0.09-4.1-0.23c-0.33-0.08-0.66-0.09-0.99-0.02c-1.28,0.27-2.54,0.18-3.78-0.27
	c-0.29-0.11-0.59-0.11-0.88,0c-0.89,0.31-1.58,0.26-2.07-0.16c8.93-7.75,16.94-15.45,22.29-26.17c6.93-13.9,5.44-29.41-1.81-42.87
	c-0.68-1.26-0.89-1.19-0.64,0.22c2.11,11.7-8.08,29.66-15.31,38.07c-2.23,2.59-4.6,4.48-7.12,5.67
	c-35.86-0.38-71.45-0.44-106.78-0.17c-6.45,0.05-11.06,0.7-15.04,5.86c-1.87,2.43-3.98,4.88-6.31,7.35l-12.14,0.24
	c-0.35,0-0.6-0.35-0.47-0.68l4.22-10.56c1.19-0.75,2.02-1.12,2.49-1.11c1.83,0.05,3.64-0.07,5.45-0.36c0.31-0.05,0.59-0.21,0.8-0.44
	c1.53-1.75,2.49-3.14,2.89-4.15c7.91-20.27,23.07-38.7,41.69-49.66c20.29-11.94,42.95-19.13,66.42-17.61
	c8.17,0.53,16.32,1.25,24.45,2.14c1.67,0.19,3.33,0.56,4.98,1.11C349.88,400.98,351.51,401.52,353.15,402.06z M221.33,448.96
	c-1.97,3.32-3.78,6.66-5.81,9.95c-0.1,0.17-0.07,0.3,0.1,0.4l0.21,0.13c0.03,0.01,0.06,0.01,0.08-0.02
	c20.82-28.63,46.93-46.5,82.81-50.11c7.41-0.75,13.63,0.35,20.9,0.81c0.68,0.04,0.72-0.09,0.11-0.39c-0.7-0.35-1.58-0.64-2.63-0.89
	c-9.71-2.27-15.87-3.62-18.48-4.05C268.02,399.72,236.13,423.96,221.33,448.96z M330.65,446.51c-0.01-3.98-3.24-7.2-7.21-7.19
	l-56.14,0.1c-3.98,0.01-7.2,3.24-7.19,7.21l0,0.34c0.01,3.98,3.24,7.2,7.21,7.19l56.14-0.1c3.98-0.01,7.2-3.24,7.19-7.21
	L330.65,446.51z"/>
<path class="st0" d="M215.52,458.91c2.03-3.29,3.84-6.63,5.81-9.95c14.8-25,46.69-49.24,77.29-44.17c2.61,0.43,8.77,1.78,18.48,4.05
	c1.05,0.25,1.93,0.54,2.63,0.89c0.61,0.3,0.57,0.43-0.11,0.39c-7.27-0.46-13.49-1.56-20.9-0.81c-35.88,3.61-61.99,21.48-82.81,50.11
	c-0.02,0.03-0.05,0.03-0.08,0.02l-0.21-0.13C215.45,459.21,215.42,459.08,215.52,458.91z"/>
<path class="st5" d="M417.96,413.39c0-0.02,0-0.04,0-0.06c0-0.03,0.02-0.04,0.06-0.03c0,0,0,0,0.01,0s0.02,0.01,0.02,0.02
	c-0.62,2.49-1.27,4.98-1.94,7.45c-2.06,7.53-3.59,15.27-4.59,23.22c-0.03,0.23-0.3,0.33-0.47,0.17c-0.35-0.34-0.6-0.8-0.74-1.39
	c-2.39-10.11,1.99-19.93,7.63-29.34C417.95,413.42,417.95,413.4,417.96,413.39z"/>
<path class="st6" d="M621.82,432.08c-2.42-0.13-4.72-0.3-6.89-0.53c-1.15-0.12-2.36-0.07-3.65,0.16c-2.86,0.51-7.01,0.61-8.71,0.79
	c-3.19,0.33-6.38,0.64-9.57,0.94c-7.28,0.67-14.43,3.72-21.38,5.94c-2.75,0.88-4.62,2.47-6.97,4.05c-1.33,0.89-2.71,0.7-4.12-0.59
	c5.55-7.06,12.47-13.56,21.08-16.32C594.96,422.25,610.27,423.67,621.82,432.08z"/>
<path class="st2" d="M621.82,432.08c4.54,3.03,8.76,6.89,12.66,11.6l-0.27,0.77c-0.08,0.22-0.23,0.3-0.46,0.24
	c-0.8-0.21-1.36-0.27-1.68-0.2c-3.98,0.91-8.09,0.84-12.33-0.19c-0.53-0.93-1.32-1.68-2.36-2.25c-0.35-0.19-0.41-0.12-0.2,0.22
	c2.34,3.71,3.3,7.78,2.88,12.21c-0.03,0.32-0.27,0.58-0.59,0.64c-7.19,1.24-13.28,1.28-21.6,2.97c-13.09,2.67-23.69,9.27-31.8,19.8
	c-3.32,4.31-6.86,9.38-10.91,12.46c-7.46,5.68-16.74,7.38-25.91,7.92c-1.42,0.08-1.59-0.34-0.5-1.25c4.12-3.45,7.77-9.93,11.7-17.72
	c6.21-12.3,11.81-25.39,20.08-36.46c1.41,1.29,2.79,1.48,4.12,0.59c2.35-1.58,4.22-3.17,6.97-4.05c6.95-2.22,14.1-5.27,21.38-5.94
	c3.19-0.3,6.38-0.61,9.57-0.94c1.7-0.18,5.85-0.28,8.71-0.79c1.29-0.23,2.5-0.28,3.65-0.16C617.1,431.78,619.4,431.95,621.82,432.08
	z"/>
<path class="st1" d="M330.65,446.85c0.01,3.97-3.21,7.2-7.19,7.21l-56.14,0.1c-3.97,0.01-7.2-3.21-7.21-7.19l0-0.34
	c-0.01-3.97,3.21-7.2,7.19-7.21l56.14-0.1c3.97-0.01,7.2,3.21,7.21,7.19L330.65,446.85z"/>
<path class="st1" d="M102.15,443.61c21.7,0.03,43.43,0.1,65.2,0.21c2.11,0.01,3.92,1.29,5.44,3.86c3.67,6.18-0.94,13.48-7.95,13.5
	c-78.91,0.24-131.32,0.23-157.25-0.02c-4.47-0.04-8.34-5.65-7.47-10.09c1-5.08,5.29-7.25,10.22-7.19c11.9,0.13,29.13,0.07,51.68-0.2
	L102.15,443.61z"/>
<path class="st7" d="M634.48,443.68c2.2,2.55,3.95,5.55,5.26,8.99c0.21,0.55,0.02,0.84-0.56,0.89l-14.03,1.16
	c-1.14,0.09-1.81-0.43-2.01-1.56c-0.47-2.79-1.61-5.75-3.4-8.86c4.24,1.03,8.35,1.1,12.33,0.19c0.32-0.07,0.88-0.01,1.68,0.2
	c0.23,0.06,0.38-0.02,0.46-0.24L634.48,443.68z"/>
<path class="st7" d="M335.62,468.47c-5.15,5.71-10.34,6.5-17.78,6.56c-18.75,0.15-37.5,0.11-56.25-0.11
	c-3.43-0.04-7.44,0.23-12.05,0.82c-3.69,0.47-6.98,1.93-10.42,3.27c-2.09,0.82-5.1,1.55-9.03,2.19c-5.23,0.86-12.77,0.96-22.6,0.31
	c2.33-2.47,4.44-4.92,6.31-7.35c3.98-5.16,8.59-5.81,15.04-5.86C264.17,468.03,299.76,468.09,335.62,468.47z"/>
<path class="st0" d="M624.91,503.14c-0.49,15.39-13.62,27.47-29.34,26.97c-15.72-0.5-28.07-13.37-27.59-28.76
	c0.49-15.39,13.62-27.47,29.34-26.97C613.04,474.88,625.39,487.75,624.91,503.14z M612.25,493.4c-4.72-8.6-15.66-11.65-24.42-6.83
	c-8.77,4.81-12.04,15.68-7.32,24.28c4.72,8.6,15.66,11.65,24.42,6.83C613.7,512.87,616.97,502,612.25,493.4z"/>
<path class="st8" d="M338.21,493.55c0.49,0.42,1.18,0.47,2.07,0.16c0.29-0.11,0.59-0.11,0.88,0c1.24,0.45,2.5,0.54,3.78,0.27
	c0.33-0.07,0.66-0.06,0.99,0.02c1.35,0.32,2.71,0.4,4.1,0.23c0.11-0.01,0.17-0.08,0.17-0.19c0.01-0.09,0.01-0.19,0.01-0.28
	c0-0.02,0.01-0.03,0.04-0.02c0.61,0.17,1.04,0.07,1.29-0.3c0.17-0.25,0.41-0.38,0.72-0.4l0.86-0.05c-0.46,0.17-0.8,0.43-1.02,0.78
	c-0.18,0.29-0.1,0.45,0.25,0.48c2.09,0.16,4.17,0.24,6.24,0.23c41.83-0.07,83.67-0.09,125.5-0.06c12.46,0.01,24.78-7.39,32.89-16.39
	c0.72-0.8,1.18-1.26,1.38-1.38c1.33-0.81,1.67-0.51,1.02,0.91c-6.26,13.65-14.5,23.78-29.84,26.4c-2.05,0.35-8.7,0.51-19.95,0.49
	c-43-0.08-86-0.05-129,0.09c-5.59,0.02-11.07,0.19-16.46,0.52c-0.61,0.03-0.67-0.14-0.18-0.51L338.21,493.55z"/>
<path class="st1" d="M155.84,488.22c0,4.79-3.89,8.68-8.68,8.68H47.78c-4.79,0-8.68-3.89-8.68-8.68v-0.32
	c0-4.79,3.89-8.68,8.68-8.68h99.38c4.79,0,8.68,3.89,8.68,8.68V488.22z"/>
<path class="st1" d="M612.25,493.4c4.72,8.59,1.45,19.46-7.32,24.28c-8.76,4.82-19.7,1.77-24.42-6.83
	c-4.72-8.59-1.45-19.46,7.32-24.28C596.59,481.76,607.53,484.81,612.25,493.4z"/>
<path class="st3" d="M221.3,503.66c-1.08,0.75-2.41,0.47-3.99-0.86l0.31-8.31c0.03-0.86,0.2-0.89,0.51-0.08
	c0.47,1.21,0.84,2.45,1.13,3.72c0.03,0.13,0.17,0.21,0.3,0.16c0.17-0.07,0.23,0.05,0.16,0.36c-0.05,0.24-0.04,0.48,0.04,0.71
	L221.3,503.66z"/>
<path class="st0" d="M217.31,502.8c1.58,1.33,2.91,1.61,3.99,0.86c0.49-0.01,0.81,0.33,0.96,1.01
	c5.22,23.64,27.37,40.67,51.97,35.06c9.74-2.23,16.69-6.93,24.72-13.46c2.37-1.92,5.71-2.09,7.98-4.06
	c0.24-0.21,0.43-0.17,0.57,0.11c0.12,0.23,0.12,0.46,0.01,0.67c-8.66,16.76-28.72,26.76-47.15,24.83
	c-18.68-1.95-33.96-14.09-41.13-31.57C217.51,512.06,216.87,507.57,217.31,502.8z"/>
<path class="st0" d="M341.89,520.21c-3.41,5.14-6.13,10.36-8.17,15.65c-0.12,0.31,0.1,0.64,0.43,0.64l194.69-0.08
	c0.29,0,0.48-0.31,0.34-0.56c-1.63-3.07-2.83-6.3-3.6-9.71c-0.16-0.72-0.8-1.22-1.53-1.21c-5.31,0.05-10.38,0.01-15.21-0.13
	c-5.06-0.14-6.32-3.07-7.07-7.52c3.14-1.13,5.3-4.08,9.05-3.99c7.59,0.18,15.16-0.06,22.88,0.31c0.5,0.03,0.91,0.4,0.99,0.9
	c2.02,13.71,17.45,35.96,31.01,40.29c1.58,0.51,1.54,0.76-0.12,0.76l-268.02-0.05c-0.8,0-0.86-0.21-0.18-0.62
	c13.46-8.15,23.06-19.55,28.8-34.2c0.13-0.32,0.44-0.53,0.78-0.53L341.89,520.21z"/>
<path class="st1" d="M66.65,516.36c0.93,0.49,1.79,0.96,2.58,1.39c5.48,3.01,6.26,9.55,2.31,14.2c-0.78,0.92-1.51,1.91-2.2,2.98
	c-8.63,0.01-17.43,0.01-26.41,0c-2.77-0.01-4.92-0.44-6.45-1.3c-8.63-4.88-4.55-17.5,5.61-17.12
	C50.49,516.82,58.68,516.77,66.65,516.36z"/>
<g>
	<path class="st2" d="M710.28,239.71c-0.21-0.66-0.82-1.11-1.51-1.11l-44.61,0.19c-0.74,0.01-1.39,0.48-1.62,1.17
		c-1.9,5.65-5.97,8.5-12.2,8.55c-8.54,0.07-17.13,0.14-25.77,0.19c-9.03-0.09-14.94-0.11-17.74-0.05
		c-4.76,0.11-8.32-1.65-10.69-5.28c-1.53-2.36-0.63-4.61-4.8-4.64c-11.61-0.08-23.2-0.11-34.78-0.08
		c-12.09-0.1-24.16-0.09-36.22,0.04c-13.51,0.13-12.91-19.95,0.75-20.13c5.81-0.08,11.64-0.12,17.49-0.12l22.18-0.01l29.15-0.07
		l111.43-0.07c0.33,0,0.56-0.33,0.45-0.64c-6.04-16.71-14.79-33.28-23.48-48.76c-11.3-20.12-25.8-40.02-43.49-59.7
		C603.2,74,561.34,45.34,517.76,27.39C486.6,13.75,454.12,5.27,420.33,1.96c-17.41-1.71-33-2.3-46.75-1.77
		c-50.51,1.91-98.55,14.97-144.11,39.18c-71.4,37.48-125.73,98.69-157.19,173.21c-9.33,22.11-16.18,44.96-20.53,68.57
		c-0.32,1.73-0.52,3.47-0.61,5.21c-0.01,0.17,0.07,0.26,0.24,0.26l129.42-0.14c2.07,0.44,4.14,0.33,6.22-0.33
		c0.04-8.83,0.06-17.66,0.07-26.5c0.01-7.65,3.21-13.17,9.58-16.55c5.98-15.46,17.18-30.45,28.19-42.73
		c10.49-11.85,20.99-21.5,31.49-28.94c12.07-8.54,26.54-10.65,41.04-8.79c1.47,0.19,1.61,0.71,0.4,1.58
		c-10.46,7.48-22.65,15.25-31.53,22.44c-14.06,11.39-26.08,24.22-37.29,38.43c-0.4,0.51-0.28,0.76,0.37,0.77l35.9,0.41
		c7.07,2.56,7.43,10.5,2.23,15.28c9.19,0.11,18.29,0.16,27.28,0.16c6.38-0.01,11.21,0.51,15.5,4.54c5.44,5.1,4.79,12.98,4.46,19.89
		c3,1.06,8.91,1.97,10.31-1.81c2.41-6.52,4.94-12.99,7.59-19.4c11-26.59,29.19-49.15,57.31-58.45c0.33-0.1,0.5-0.46,0.38-0.78
		c-1.29-3.46-2.9-7.09-3.67-10.46c-3.39-14.87-0.24-28.2,9.47-40.01c9.35-10.07,20.59-15.58,33.74-16.54
		c22.59-1.65,46.17,10.37,53.94,32.94c0.39,1.12,1.05,2.14,2.03,2.62c21.74,10.63,44.65,22.55,60.1,41.78
		c0.23,0.27,0.16,0.41-0.2,0.42l-19.65,0.16c-4.88,0.23-8.94-0.84-12.18-3.21c-7.03-5.12-16.48-11.76-28.35-19.91
		c-2.47-1.69-4.03,0.17-6.22,1.2c-0.63,0.3-0.9,1.06-0.6,1.69c2.7,5.69,6.2,11.57,0.63,17.06c-0.72,0.71-1.45,1.44-2.18,2.19
		c-0.22,0.22-0.35,0.53-0.36,0.85c-0.17,6.03-0.56,12.22-3.56,17.55c-6.06,10.74-19.77,11-30.58,10.73
		c-0.39-0.01-0.59,0.18-0.62,0.57c-0.09,1.23,0.14,2.55-0.01,3.62c-2.28,15.93-5.56,28.69-7.95,43.25c-0.05,0.33,0.17,0.63,0.5,0.68
		l27.3,4.21c0.98,0.15,1.99,0.1,2.95-0.14c8.89-2.25,17.94-3.6,27.14-1.79c0.53,0.11,1.09-0.03,1.51-0.38
		c7.5-6.22,15.12-12.28,24.29-15.95c11.33-4.52,23.58-4.61,34.18,2.24c7.76,6.01,12.01,14.11,12.74,24.29
		c0.02,0.28,0.17,0.42,0.45,0.42l61.67-0.27c7.09-0.09,14.19-0.15,21.28-0.17c8.01-0.02,13.31,6.91,10.31,14.6
		c-2.58,6.63-8.41,6.61-14.56,6.72c1.51,0.92,1.99,2.05,1.43,3.4c-0.11,0.27-0.14,0.54-0.1,0.82c0.35,2.33,0.02,4.56-0.98,6.67
		c-0.13,0.27-0.11,0.53,0.08,0.78c0.3,0.4,0.36,0.84,0.17,1.31c-0.08,0.2-0.22,0.27-0.43,0.21l-0.26-0.08
		c-0.13-0.05-0.21,0-0.22,0.14c-0.47,3.85-1.41,7.58-2.82,11.19c-0.03,0.09-0.01,0.18,0.06,0.25c0.08,0.07,0.14,0.14,0.17,0.22
		c0.03,0.08-1.56,4.74-2.24,6.83c-0.39,1.2-1.1,2.3-2.14,3.3c-0.17,0.17-0.28,0.34-0.31,0.51c-0.05,0.21-0.05,0.41-0.01,0.61
		c0.07,0.37,0.29,0.52,0.66,0.46c0.19-0.03,0.38,0,0.57,0.07c0.11,0.04,0.17,0.16,0.14,0.28c-0.03,0.11-0.14,0.18-0.26,0.16
		c-0.45-0.07-0.87-0.04-1.28,0.1c-0.13,0.04-0.13,0.23,0,0.28c0.49,0.17,0.99,0.21,1.52,0.13c0.65-0.09,0.9,0.09,0.77,0.56
		c4.57,0.14,7.71-1.2,9.4-4.01c4.34-7.18,4.39-11.35,14.33-11.44c20.76-0.19,41.61-0.28,62.54-0.26c0.58,0,1.04-0.47,1.03-1.04
		C725.14,297.53,719.3,268.67,710.28,239.71z M569.21,112.31c3.41,11.77,8.39,16.76,19.79,20.98c0.95,0.35,0.93,0.64-0.05,0.87
		c-10.21,2.43-17.34,9.02-19.33,19.47c-0.21,0.18-0.4,0.44-0.55,0.79c-0.12,0.27-0.42,0.41-0.7,0.32c-0.11-0.03-0.21-0.1-0.32-0.2
		c-0.1-0.1-0.17-0.25-0.22-0.46c-2.41-10.89-8.7-17.51-18.89-19.87c-2.63-0.61-2.62-1.18,0.03-1.69c4.51-0.87,8.75-3.38,12.72-7.55
		c3.28-3.48,5.19-8.25,6.24-12.63C568.32,110.71,568.74,110.7,569.21,112.31z M156.25,216.04c-11.3,2.57-17.35,10.47-20.38,21.1
		c-0.13,0.48-0.35,0.77-0.64,0.88c-0.32,0.11-0.67-0.09-0.72-0.43c-1.99-12.78-9.32-18.08-21.18-21.4c-1.45-0.41-1.44-0.8,0.01-1.18
		c8.08-2.12,16.42-7.14,19.48-15.39c0.81-2.18,1.51-4.36,2.12-6.55c0.08-0.29,0.45-0.39,0.67-0.18l0.32,0.3
		c0.13,0.11,0.22,0.26,0.27,0.43c3.18,10.56,8.48,19.15,20,21C158.68,215.01,158.7,215.49,156.25,216.04z M198.35,148.09l-4.98,0.46
		l-10.95-0.59c-0.84-0.05-1.46-0.8-1.35-1.64c0.75-5.63,5.14-8.6,10.23-9.9c0.81-0.15,1.36-0.02,1.65,0.37
		c2.93,4.06,5.45,7.41,6.09,10.35C199.14,147.6,198.82,148.05,198.35,148.09z M303.59,198.39c-4.81,0-8.71-3.9-8.71-8.71
		s3.9-8.71,8.71-8.71s8.71,3.9,8.71,8.71S308.4,198.39,303.59,198.39z M365.83,153.16c-0.5,4.9-3.94,8.93-8.99,8.99
		c-10.17,0.12-20.82,0.49-30.94-0.54c-5.25-0.53-10.27-2.71-15.49-4.17c-0.25-0.07-0.26-0.42-0.02-0.51l2.53-0.97
		c15.94-5.96,26.83-16.98,45.54-13.75C363.91,144.27,366.36,147.92,365.83,153.16z M498.03,110.35c-0.43,0.78-0.76,0.74-0.98-0.13
		c-2.16-8.51-7.5-13.84-16.01-15.99c-0.28-0.07-0.38-0.42-0.18-0.63c0.47-0.49,1.08-0.89,1.83-1.18
		c7.31-2.68,12.05-7.36,14.21-14.03c0.58-1.79,1.06-1.77,1.43,0.08c1.61,8.07,7.75,12,15.06,15.1c0.95,0.4,0.93,0.75-0.05,1.04
		c-7.64,2.25-12.82,6.22-14.85,14.24C498.36,109.53,498.21,110.03,498.03,110.35z"/>
	<path class="st2" d="M241.71,359.25c0.01-0.38-0.29-0.7-0.67-0.72c-3.1-0.13-6.19-0.54-9.27-0.4c-8.48,0.39-16.89,0.19-25.24-0.58
		c-1.93-0.33-3.93-0.54-6.02-0.61c-8.09-0.29-13.09-7-13.26-14.78c-0.11-5.04-0.17-16.67-0.17-34.9l-43.28-0.09l-94.55,0.01
		c-0.33,0-0.5,0.16-0.53,0.49c-1.79,22.84-1.66,45.78,0.4,68.81l59.99-0.06c-3.93-3.04-6.24-6.63-6.95-10.76
		c-0.56-3.24,2.34-6.38,4.7-8.43c-12.32-0.27-23.49-0.28-33.52-0.04c-5.75,0.14-10.14-5.13-8.65-10.71
		c1.59-6.02,7.56-6.65,12.9-6.63c26.48,0.12,52.97,0.15,79.47,0.08c4.93-0.01,8.03,0.08,9.3,0.26c5.05,0.71,8.76,5.71,7.78,10.69
		c-1.63,8.33-12.35,5.94-18.18,6.44c9.17,5.27,10.02,11.67,2.54,19.2c11.17,0.27,22.37,0.31,33.59,0.13
		c5.75-0.1,10.38,6.73,7.95,11.97c-2.18,4.7-6.86,5.26-12.1,5.27c-20.13,0.03-40.25,0.04-60.38,0.04H51
		c1.63,12.31,4.05,24.38,7.28,36.2c1.21,4.43,2.45,8.94,3.74,13.55l40.13-0.07c-2.74-5.65-3.98-11.2,1.18-15.09
		c2.06-1.56,5.57-1.77,8.01-1.84c5.02-0.14,12.7-0.21,23.04-0.21l62.35,0.27c1.59-4.41,3.2-8.76,4.83-13.07
		c2.85-7.5,7.48-9.58,14.85-10.21c1.09-6.11,3.8-11.31,8.13-15.59c5.16-5.09,10.48-9.21,15.95-12.36c1.88-1.07,2.25-2.33,1.94-4.36
		C241.82,367.13,241.58,363.16,241.71,359.25z"/>
	<path class="st2" d="M724.67,365.33l-94.13-0.13l-59.55-0.05c-0.33,0-0.52,0.36-0.35,0.63c5.86,9.42,11.99,19.02,15.34,29.61
		c0.17,0.53,0.65,0.88,1.21,0.89c20.94,0.13,39.57,6.57,55.88,19.31c9.76,8.11,18.51,18.27,22.63,30.59c2.1,6.31,3,16.33-1.64,21.88
		c-0.36,0.42-0.42,1.02-0.15,1.52c4.84,8.98,7.3,18.6,7.38,28.87c0,0.32,0.16,0.48,0.48,0.48l12.43-0.09
		c0.94-0.01,1.81-0.51,2.28-1.33c18.22-31.74,29.92-67.45,35.73-103.61c1.49-9.28,2.47-18.64,2.93-28.08
		C725.15,365.55,724.94,365.33,724.67,365.33z"/>
	<path class="st2" d="M195.92,530.99c-0.33-0.93-0.76-1.5-1.27-1.69c-7.04-2.7-12.67-5.59-13.02-14c-0.02-0.55-0.3-0.81-0.85-0.8
		c-32.68,0.9-65.49,0.29-98.18,0.21c-0.05,0-1.39-0.04-4.02-0.12c-4.17-0.13-8.14,0.46-11.93,1.77c0.93,0.49,1.79,0.96,2.58,1.39
		c5.48,3.01,6.26,9.55,2.31,14.2c-0.78,0.92-1.51,1.91-2.2,2.98c2.79,0.43,6.37,0.65,10.75,0.67c39.13,0.21,78.22,0.34,117.26,0.4
		c0.35,0,0.58-0.36,0.42-0.67C197.07,533.94,196.45,532.49,195.92,530.99z"/>
	<path class="st2" d="M525.58,526.15c-0.16-0.72-0.8-1.22-1.53-1.21c-5.31,0.05-10.38,0.01-15.21-0.13
		c-5.06-0.14-6.32-3.07-7.07-7.52c-6.77,1.95-12.08,2.92-15.93,2.91c-48.02-0.02-96-0.02-143.95,0.01
		c-3.41,5.14-6.13,10.36-8.17,15.65c-0.12,0.31,0.1,0.64,0.43,0.64l194.69-0.08c0.29,0,0.48-0.31,0.34-0.56
		C527.55,532.79,526.35,529.56,525.58,526.15z"/>
</g>
</svg>
